<svg version="1.1" xmlns="http://www.w3.org/2000/svg" style="display: block;" viewBox="0 0 2048 2048" width="1024" height="1024" preserveAspectRatio="none">
<path transform="translate(0,0)" fill="rgb(22,57,116)" d="M 767.545 712.575 C 768.018 712.107 768.491 711.64 768.964 711.172 C 841.884 711.289 965.128 710.713 1034.91 711.134 C 1115.58 711.849 1192.69 744.42 1249.45 801.748 C 1318.36 871.992 1345.99 955.649 1340 1053.22 C 1330.87 1201.9 1211.21 1328.3 1062.78 1343.26 C 1024.74 1347.09 979.689 1345.13 940.984 1345.16 L 767.651 1344.98 C 768.346 1317.86 768.155 1289.81 767.925 1262.65 C 766.989 1151.96 769.204 1040.87 767.709 930.226 C 766.117 858.317 769.681 783.299 767.545 712.575 z M 948.005 1172.8 C 975.837 1172.49 1003.67 1172.36 1031.51 1172.41 C 1032.11 1172.43 1033.91 1172.51 1034.37 1172.47 C 1072.74 1168.85 1104.4 1156.71 1130.35 1128.37 C 1168.7 1086.49 1170.14 1058.11 1168.82 1005.83 C 1164.71 970.694 1148.86 936.041 1120.56 914.126 C 1081.92 884.201 1051.2 882.935 1005.97 882.818 C 986.584 882.753 967.199 882.806 947.815 882.978 L 948.092 1067.34 C 948.007 1101.65 947.017 1138.74 948.005 1172.8 z"/>
<path transform="translate(0,0)" fill="rgb(215,20,92)" d="M 883.894 829.081 L 979.363 829.035 C 1052.85 829.063 1109.53 828.89 1166.27 885.747 C 1197.13 916.869 1216.67 957.441 1221.76 1000.98 C 1204.38 1004.24 1186.07 1003.89 1168.82 1005.83 C 1164.71 970.694 1148.86 936.041 1120.56 914.126 C 1081.92 884.201 1051.2 882.935 1005.97 882.818 C 986.584 882.753 967.199 882.806 947.815 882.978 L 948.092 1067.34 C 948.007 1101.65 947.017 1138.74 948.005 1172.8 C 975.837 1172.49 1003.67 1172.36 1031.51 1172.41 C 1025.29 1172.77 1019.06 1172.91 1012.84 1172.84 L 1012.71 1225.13 C 971.225 1226.63 926.03 1225.16 883.983 1225.63 L 884.108 930.049 C 884.636 910.899 884.771 887.759 883.969 868.812 C 883.766 855.569 883.741 842.324 883.894 829.081 z"/>
<path transform="translate(0,0)" fill="rgb(29,143,213)" d="M 767.545 712.575 C 776.557 721.863 791.058 742.69 799.191 753.789 L 850.786 824.696 C 860.117 837.531 873.785 856.861 883.969 868.812 C 884.771 887.759 884.636 910.899 884.108 930.049 C 845.612 930.072 806.122 929.631 767.709 930.226 C 766.117 858.317 769.681 783.299 767.545 712.575 z"/>
<path transform="translate(0,0)" fill="rgb(245,166,29)" d="M 1168.82 1005.83 C 1186.07 1003.89 1204.38 1004.24 1221.76 1000.98 C 1227.1 1060.45 1215.72 1109.89 1176.82 1156.42 C 1144.84 1195.05 1098.81 1219.37 1048.88 1224.02 C 1037.32 1225.01 1024.39 1224.98 1012.71 1225.13 L 1012.84 1172.84 C 1019.06 1172.91 1025.29 1172.77 1031.51 1172.41 C 1032.11 1172.43 1033.91 1172.51 1034.37 1172.47 C 1072.74 1168.85 1104.4 1156.71 1130.35 1128.37 C 1168.7 1086.49 1170.14 1058.11 1168.82 1005.83 z"/>
<path transform="translate(0,0)" fill="rgb(232,70,34)" d="M 692.062 706.884 C 708.336 707.492 726.607 707.056 743.034 706.997 L 743.251 820.392 C 743.305 840.181 744.342 864.023 743.664 883.325 C 736.941 877.624 698.592 786.487 692.997 773.497 C 691.268 769.482 692.01 716.215 692.062 706.884 z"/>
</svg>